<?xml version="1.0" encoding="us-ascii" standalone="no"?><svg xmlns="http://www.w3.org/2000/svg" xmlns:xlink="http://www.w3.org/1999/xlink" contentStyleType="text/css" height="1451px" preserveAspectRatio="none" style="width:1280px;height:1451px;background:#FFFFFF;" version="1.1" viewBox="0 0 1280 1451" width="1280px" zoomAndPan="magnify"><defs/><g><!--cluster External Environment--><g id="cluster_External Environment"><path d="M461.3004,20.6383 C466.687,10.4882 475.148,9.6059 480.9895,20.2067 C486.0474,10.9863 493.8891,12.255 498.692,20.4657 C502.6115,12.4432 509.8089,12.0323 515.4606,18.4549 C519.8793,11.125 528.1143,10.3569 532.1331,18.8756 C536.6649,9.0661 544.3158,7.6636 550.679,17.1117 C553.6983,8.5812 561.6772,6.7414 567.5351,14.1004 C573.128,7.8633 580.123,7.3058 584.0505,15.9489 C588.2913,6.3174 596.1235,7.3214 601.9844,14.1878 C607.7434,6.3071 614.7987,6 619.8509,14.9387 C626.263,7.2713 635.3105,7.7627 639.1363,17.762 C644.7131,10.3259 654.1667,9.0534 657.9903,19.6001 C662.4877,13.8988 669.6245,13.0911 672.8251,21.0122 C679.2684,11.8029 686.0807,12.1914 691.6752,21.8597 C700.3516,12.6864 710.9384,15.5044 715,27.0539 C715.6434,26.9479 716.028,27.3939 715.7129,28.0058 C726.4984,31.4601 729.4704,37.8711 721.8301,47.1982 C734.8171,51.2237 736.382,60.302 726.7463,69.3485 C735.3313,77.4973 730.6372,85.6753 721.2219,88.6803 C727.8619,100.8969 722.8953,112.5195 708,113.0539 C709.1598,113.3368 709.1059,114.222 708.4532,114.9403 C703.6683,121.3918 697.9143,123.7105 692.7458,115.347 C689.6746,125.2266 681.18,125.2788 675.6422,117.7739 C671.517,128.0471 665.2252,128.2285 658.262,120.5164 C652.8045,129.0926 645.4878,128.5227 639.5794,121.041 C634.6427,129.9177 628.6942,130.7059 621.917,123.0014 C617.267,133.344 610.1149,133.3014 602.8743,125.7597 C596.82,133.7651 591.2655,133.3435 586.1479,124.8121 C580.5954,134.9351 572.8877,133.3248 566.9343,125.2351 C561.6325,132.1173 553.6275,133.8408 549.1755,124.3153 C541.3858,132.3639 535.9576,129.8898 531.4441,120.9049 C525.1401,127.2652 519.3411,127.169 514.8683,118.8387 C509.1833,127.1919 501.2528,124.7905 497.7648,116.5713 C491.7826,124.7399 484.4851,124.0637 480.3802,114.709 C467.4897,124.2858 457.3948,123.3534 453,106.0539 C454.2399,106.2183 454.5287,106.8061 453.871,107.877 C442.7386,101.4606 441.6097,94.6363 452.2765,86.5872 C443.2321,81.9376 443.5112,74.703 450.8544,68.747 C441.8564,61.2994 441.0531,53.3986 452.8234,47.914 C440.0371,34.8113 442.5831,25.3764 460,20.0539 C460.6551,19.6378 461.2097,19.7984 461.3004,20.6383 " fill="none" style="stroke:#181818;stroke-width:1.0;"/><text fill="#000000" font-family="sans-serif" font-size="14" font-weight="bold" lengthAdjust="spacing" textLength="154" x="507" y="38.5891">External Environment</text></g><!--cluster core--><g id="cluster_core"><path d="M11,170.0539 L88,170.0539 A7.5,7.5 0 0 1 93,175.0539 L100,192.5422 L1011,192.5422 A5,5 0 0 1 1016,197.5422 L1016,1340.7339 A5,5 0 0 1 1011,1345.7339 L11,1345.7339 A5,5 0 0 1 6,1340.7339 L6,175.0539 A5,5 0 0 1 11,170.0539 " fill="none" style="stroke:#000000;stroke-width:1.5;"/><line style="stroke:#000000;stroke-width:1.5;" x1="6" x2="100" y1="192.5422" y2="192.5422"/><text fill="#000000" font-family="sans-serif" font-size="14" font-weight="bold" lengthAdjust="spacing" textLength="81" x="10" y="185.5891">Client Core</text></g><!--cluster comm--><g id="cluster_comm"><path d="M43,237.2939 L83,237.2939 A7.5,7.5 0 0 1 88,242.2939 L95,259.7822 L417,259.7822 A5,5 0 0 1 422,264.7822 L422,456.2939 A5,5 0 0 1 417,461.2939 L43,461.2939 A5,5 0 0 1 38,456.2939 L38,242.2939 A5,5 0 0 1 43,237.2939 " fill="#F0FDF4" style="stroke:#000000;stroke-width:1.5;"/><line style="stroke:#000000;stroke-width:1.5;" x1="38" x2="95" y1="259.7822" y2="259.7822"/><text fill="#000000" font-family="sans-serif" font-size="14" font-weight="bold" lengthAdjust="spacing" textLength="44" x="42" y="252.8291">comm</text></g><!--cluster mqtt--><g id="cluster_mqtt"><rect fill="none" height="125" rx="5" ry="5" style="stroke:#181818;stroke-width:1.0;" width="296" x="78" y="296.2939"/><path d="M175,296.2939 L175,305.7822 L165,315.7822 L78,315.7822 " fill="none" style="stroke:#181818;stroke-width:1.0;"/><text fill="#000000" font-family="sans-serif" font-size="14" font-weight="bold" lengthAdjust="spacing" textLength="87" x="81" y="310.8291">TMqttClient</text></g><!--cluster img_trans--><g id="cluster_img_trans"><path d="M472,221.0539 L540,221.0539 A7.5,7.5 0 0 1 545,226.0539 L552,243.5422 L979,243.5422 A5,5 0 0 1 984,248.5422 L984,1140.2439 A5,5 0 0 1 979,1145.2439 L472,1145.2439 A5,5 0 0 1 467,1140.2439 L467,226.0539 A5,5 0 0 1 472,221.0539 " fill="#EFF6FF" style="stroke:#000000;stroke-width:1.5;"/><line style="stroke:#000000;stroke-width:1.5;" x1="467" x2="552" y1="243.5422" y2="243.5422"/><text fill="#000000" font-family="sans-serif" font-size="14" font-weight="bold" lengthAdjust="spacing" textLength="72" x="471" y="236.5891">img_trans</text></g><!--cluster net--><g id="cluster_net"><path d="M704,272.0539 L723,272.0539 A7.5,7.5 0 0 1 728,277.0539 L735,294.5422 L878,294.5422 A5,5 0 0 1 883,299.5422 L883,624.7839 A5,5 0 0 1 878,629.7839 L704,629.7839 A5,5 0 0 1 699,624.7839 L699,277.0539 A5,5 0 0 1 704,272.0539 " fill="#FFFFFF" style="stroke:#000000;stroke-width:1.5;"/><line style="stroke:#000000;stroke-width:1.5;" x1="699" x2="735" y1="294.5422" y2="294.5422"/><text fill="#000000" font-family="sans-serif" font-size="14" font-weight="bold" lengthAdjust="spacing" textLength="23" x="703" y="287.5891">net</text></g><!--cluster TRecv--><g id="cluster_TRecv"><rect fill="none" height="87.48" rx="5" ry="5" style="stroke:#181818;stroke-width:1.0;" width="136" x="723" y="315.0539"/><path d="M776,315.0539 L776,324.5422 L766,334.5422 L723,334.5422 " fill="none" style="stroke:#181818;stroke-width:1.0;"/><text fill="#000000" font-family="sans-serif" font-size="14" font-weight="bold" lengthAdjust="spacing" textLength="43" x="726" y="329.5891">TRecv</text></g><!--cluster TReassembly--><g id="cluster_TReassembly"><rect fill="none" height="87.49" rx="5" ry="5" style="stroke:#181818;stroke-width:1.0;" width="122" x="723" y="518.2939"/><path d="M829,518.2939 L829,527.7822 L819,537.7822 L723,537.7822 " fill="none" style="stroke:#181818;stroke-width:1.0;"/><text fill="#000000" font-family="sans-serif" font-size="14" font-weight="bold" lengthAdjust="spacing" textLength="96" x="726" y="532.8291">TReassembly</text></g><!--cluster vid_render--><g id="cluster_vid_render"><path d="M512,740.7839 L583,740.7839 A7.5,7.5 0 0 1 588,745.7839 L595,763.2722 L808,763.2722 A5,5 0 0 1 813,768.2722 L813,1108.2439 A5,5 0 0 1 808,1113.2439 L512,1113.2439 A5,5 0 0 1 507,1108.2439 L507,745.7839 A5,5 0 0 1 512,740.7839 " fill="#FFFFFF" style="stroke:#000000;stroke-width:1.5;"/><line style="stroke:#000000;stroke-width:1.5;" x1="507" x2="595" y1="763.2722" y2="763.2722"/><text fill="#000000" font-family="sans-serif" font-size="14" font-weight="bold" lengthAdjust="spacing" textLength="75" x="511" y="756.3191">vid_render</text></g><!--cluster TVidRender--><g id="cluster_TVidRender"><rect fill="none" height="87.48" rx="5" ry="5" style="stroke:#181818;stroke-width:1.0;" width="244" x="545" y="1001.7639"/><path d="M639,1001.7639 L639,1011.2522 L629,1021.2522 L545,1021.2522 " fill="none" style="stroke:#181818;stroke-width:1.0;"/><text fill="#000000" font-family="sans-serif" font-size="14" font-weight="bold" lengthAdjust="spacing" textLength="84" x="548" y="1016.2991">TVidRender</text></g><!--cluster TFramePool--><g id="cluster_TFramePool"><rect fill="none" height="87.49" rx="5" ry="5" style="stroke:#181818;stroke-width:1.0;" width="258" x="531" y="783.7839"/><path d="M627,783.7839 L627,793.2722 L617,803.2722 L531,803.2722 " fill="none" style="stroke:#181818;stroke-width:1.0;"/><text fill="#000000" font-family="sans-serif" font-size="14" font-weight="bold" lengthAdjust="spacing" textLength="86" x="534" y="798.3191">TFramePool</text></g><!--cluster utils--><g id="cluster_utils"><path d="M128,1210.2439 L157,1210.2439 A7.5,7.5 0 0 1 162,1215.2439 L169,1232.7322 L551,1232.7322 A5,5 0 0 1 556,1237.7322 L556,1308.7339 A5,5 0 0 1 551,1313.7339 L128,1313.7339 A5,5 0 0 1 123,1308.7339 L123,1215.2439 A5,5 0 0 1 128,1210.2439 " fill="#D5ECEC" style="stroke:#000000;stroke-width:1.5;"/><line style="stroke:#000000;stroke-width:1.5;" x1="123" x2="169" y1="1232.7322" y2="1232.7322"/><text fill="#000000" font-family="sans-serif" font-size="14" font-weight="bold" lengthAdjust="spacing" textLength="33" x="127" y="1225.7791">utils</text></g><!--entity broker--><g id="elem_broker"><rect fill="#F1F1F1" height="36.4883" rx="5" ry="5" style="stroke:#181818;stroke-width:0.5;" width="110" x="461" y="57.8039"/><text fill="#000000" font-family="sans-serif" font-size="14" lengthAdjust="spacing" textLength="90" x="471" y="81.3391">MQTT Broker</text></g><!--entity udp--><g id="elem_udp"><ellipse cx="669" cy="76.0539" fill="#F1F1F1" rx="8" ry="8" style="stroke:#181818;stroke-width:0.5;"/><text fill="#000000" font-family="sans-serif" font-size="14" lengthAdjust="spacing" textLength="60" x="639" y="106.5891">UDP Port</text></g><!--entity pub--><g id="elem_pub"><ellipse cx="314" cy="368.2939" fill="#F1F1F1" rx="8" ry="8" style="stroke:#181818;stroke-width:0.5;"/><text fill="#000000" font-family="sans-serif" font-size="14" lengthAdjust="spacing" textLength="56" x="286" y="398.8291">&#21457;&#24067;&#25509;&#21475;</text></g><!--entity sub--><g id="elem_sub"><ellipse cx="182" cy="368.2939" fill="#F1F1F1" rx="8" ry="8" style="stroke:#181818;stroke-width:0.5;"/><text fill="#000000" font-family="sans-serif" font-size="14" lengthAdjust="spacing" textLength="56" x="154" y="398.8291">&#35746;&#38405;&#25509;&#21475;</text></g><!--entity recv--><g id="elem_recv"><rect fill="#F1F1F1" height="36.4883" rx="5" ry="5" style="stroke:#181818;stroke-width:0.5;" width="104" x="739" y="350.0539"/><text fill="#000000" font-family="sans-serif" font-size="14" lengthAdjust="spacing" textLength="84" x="749" y="373.5891">&#32593;&#32476;&#25509;&#25910;&#32447;&#31243;</text></g><!--entity reasm--><g id="elem_reasm"><rect fill="#F1F1F1" height="36.4883" rx="5" ry="5" style="stroke:#181818;stroke-width:0.5;" width="90" x="739" y="553.2939"/><text fill="#000000" font-family="sans-serif" font-size="14" lengthAdjust="spacing" textLength="70" x="749" y="576.8291">&#20998;&#29255;&#37325;&#32452;&#22120;</text></g><!--entity pipeline--><g id="elem_pipeline"><rect fill="#F1F1F1" height="36.4883" rx="5" ry="5" style="stroke:#181818;stroke-width:0.5;" width="76" x="697" y="1036.7639"/><text fill="#000000" font-family="sans-serif" font-size="14" lengthAdjust="spacing" textLength="56" x="707" y="1060.2991">&#28210;&#26579;&#31649;&#32447;</text></g><!--entity bus--><g id="elem_bus"><rect fill="#F1F1F1" height="36.4883" rx="5" ry="5" style="stroke:#181818;stroke-width:0.5;" width="76" x="561" y="1036.7639"/><text fill="#000000" font-family="sans-serif" font-size="14" lengthAdjust="spacing" textLength="56" x="571" y="1060.2991">&#20107;&#20214;&#24635;&#32447;</text></g><!--entity pool--><g id="elem_pool"><rect fill="#F1F1F1" height="36.4883" rx="5" ry="5" style="stroke:#181818;stroke-width:0.5;" width="62" x="547" y="818.7839"/><text fill="#000000" font-family="sans-serif" font-size="14" lengthAdjust="spacing" textLength="42" x="557" y="842.3191">&#20869;&#23384;&#27744;</text></g><!--entity queue--><g id="elem_queue"><rect fill="#F1F1F1" height="36.4883" rx="5" ry="5" style="stroke:#181818;stroke-width:0.5;" width="76" x="697" y="818.7839"/><text fill="#000000" font-family="sans-serif" font-size="14" lengthAdjust="spacing" textLength="56" x="707" y="842.3191">&#32034;&#24341;&#38431;&#21015;</text></g><!--entity signal--><g id="elem_signal"><rect fill="#F1F1F1" height="36.4883" rx="5" ry="5" style="stroke:#181818;stroke-width:0.5;" width="71" x="146.5" y="1253.2439"/><text fill="#000000" font-family="sans-serif" font-size="14" lengthAdjust="spacing" textLength="51" x="156.5" y="1276.7791">TSignal</text></g><!--entity sched--><g id="elem_sched"><rect fill="#F1F1F1" height="36.4883" rx="5" ry="5" style="stroke:#181818;stroke-width:0.5;" width="97" x="277.5" y="1253.2439"/><text fill="#000000" font-family="sans-serif" font-size="14" lengthAdjust="spacing" textLength="77" x="287.5" y="1276.7791">TScheduler</text></g><!--entity logger--><g id="elem_logger"><rect fill="#F1F1F1" height="36.4883" rx="5" ry="5" style="stroke:#181818;stroke-width:0.5;" width="54" x="434" y="1253.2439"/><text fill="#000000" font-family="sans-serif" font-size="14" lengthAdjust="spacing" textLength="34" x="444" y="1276.7791">TLog</text></g><!--entity syscall--><g id="elem_syscall"><rect fill="#F1F1F1" height="36.4883" rx="5" ry="5" style="stroke:#181818;stroke-width:0.5;" width="142" x="1032" y="350.0539"/><text fill="#000000" font-family="sans-serif" font-size="14" lengthAdjust="spacing" textLength="122" x="1042" y="373.5891">POSIX System Call</text></g><!--entity paho--><g id="elem_paho"><rect fill="#F1F1F1" height="36.4883" rx="5" ry="5" style="stroke:#181818;stroke-width:0.5;" width="135" x="18.5" y="57.8039"/><text fill="#000000" font-family="sans-serif" font-size="14" lengthAdjust="spacing" textLength="115" x="28.5" y="81.3391">Paho MQTT C++</text></g><!--entity gst--><g id="elem_gst"><rect fill="#F1F1F1" height="36.4883" rx="5" ry="5" style="stroke:#181818;stroke-width:0.5;" width="91" x="1032.5" y="1253.2439"/><text fill="#000000" font-family="sans-serif" font-size="14" lengthAdjust="spacing" textLength="71" x="1042.5" y="1276.7791">Gstreamer</text></g><!--entity sigslot--><g id="elem_sigslot"><rect fill="#F1F1F1" height="36.4883" rx="5" ry="5" style="stroke:#181818;stroke-width:0.5;" width="132" x="59" y="1408.7339"/><text fill="#000000" font-family="sans-serif" font-size="14" lengthAdjust="spacing" textLength="112" x="69" y="1432.2691">palacaze/sigslot</text></g><!--entity lockfree--><g id="elem_lockfree"><rect fill="#F1F1F1" height="36.4883" rx="5" ry="5" style="stroke:#181818;stroke-width:0.5;" width="242" x="1032" y="918.2739"/><text fill="#000000" font-family="sans-serif" font-size="14" lengthAdjust="spacing" textLength="222" x="1042" y="941.8091">cameron314/readerwriterqueue</text></g><!--entity spd--><g id="elem_spd"><rect fill="#F1F1F1" height="36.4883" rx="5" ry="5" style="stroke:#181818;stroke-width:0.5;" width="67" x="461.5" y="1408.7339"/><text fill="#000000" font-family="sans-serif" font-size="14" lengthAdjust="spacing" textLength="47" x="471.5" y="1432.2691">spdlog</text></g><g id="elem_GMN55"><path d="M250.5,1419.3239 L250.5,1434.6345 A5,5 0 0 0 255.5,1439.6345 L396.5,1439.6345 A5,5 0 0 0 401.5,1434.6345 L401.5,1424.3239 L391.5,1414.3239 L330,1414.3239 L326,1290.0939 L322,1414.3239 L255.5,1414.3239 A5,5 0 0 0 250.5,1419.3239 " fill="#FEFFDD" style="stroke:#181818;stroke-width:0.5;"/><path d="M391.5,1414.3239 L391.5,1421.8239 A2.5,2.5 0 0 0 394,1424.3239 L401.5,1424.3239 L391.5,1414.3239 " fill="#FEFFDD" style="stroke:#181818;stroke-width:0.5;"/><text fill="#000000" font-family="sans-serif" font-size="13" lengthAdjust="spacing" textLength="130" x="256.5" y="1431.8923">&#21333;&#32447;&#31243;&#24322;&#27493;&#23450;&#26102;&#35843;&#24230;&#22120;</text></g><!--reverse link pool to queue--><g id="link_pool_queue"><path d="M615.39,837.0239 C640.54,837.0239 669.92,837.0239 696.72,837.0239 " fill="none" id="pool-backto-queue" style="stroke:#181818;stroke-width:1.0;"/><polygon fill="#181818" points="609.39,837.0239,618.39,841.0239,614.39,837.0239,618.39,833.0239,609.39,837.0239" style="stroke:#181818;stroke-width:1.0;"/><text fill="#000000" font-family="sans-serif" font-size="13" lengthAdjust="spacing" textLength="26" x="640" y="830.5923">&#35760;&#24405;</text></g><!--link broker to sub--><g id="link_broker_sub"><path d="M460.66,80.0339 C400.48,86.2139 305.24,105.0439 248,162.0539 C189.92,219.8939 183.0702,322.9761 182.2602,353.2961 " fill="none" id="broker-to-sub" style="stroke:#181818;stroke-width:1.0;stroke-dasharray:7.0,7.0;"/><polygon fill="#181818" points="182.1,359.2939,186.3389,350.404,182.2335,354.2957,178.3418,350.1903,182.1,359.2939" style="stroke:#181818;stroke-width:1.0;"/></g><!--link pub to broker--><g id="link_pub_broker"><path d="M313.29,359.6639 C311,330.6839 306.52,225.8139 354,162.0539 C380.08,127.0239 419.2282,107.1181 455.1182,94.3281 " fill="none" id="pub-to-broker" style="stroke:#181818;stroke-width:1.0;stroke-dasharray:7.0,7.0;"/><polygon fill="#181818" points="460.77,92.3139,450.9495,91.5672,456.0601,93.9924,453.635,99.103,460.77,92.3139" style="stroke:#181818;stroke-width:1.0;"/></g><!--link udp to recv--><g id="link_udp_recv"><path d="M676.74,84.7539 C690.46,98.8539 719.14,130.2939 735,162.0539 C767.43,226.9739 782.174,307.2212 787.694,343.7712 " fill="none" id="udp-to-recv" style="stroke:#181818;stroke-width:1.0;stroke-dasharray:7.0,7.0;"/><polygon fill="#181818" points="788.59,349.7039,791.2012,340.2075,787.8433,344.76,783.2909,341.4022,788.59,349.7039" style="stroke:#181818;stroke-width:1.0;"/><text fill="#000000" font-family="sans-serif" font-size="13" lengthAdjust="spacing" textLength="26" x="730.46" y="150.6223">&#30417;&#21548;</text></g><!--link recv to syscall--><g id="link_recv_syscall"><path d="M843.22,368.2939 C894.83,368.2939 974.17,368.2939 1031.59,368.2939 " fill="none" id="recv-syscall" style="stroke:#181818;stroke-width:1.0;stroke-dasharray:7.0,7.0;"/><text fill="#000000" font-family="sans-serif" font-size="13" lengthAdjust="spacing" textLength="80" x="897.5" y="361.8623">&#31995;&#32479; API &#35843;&#29992;</text></g><!--link recv to reasm--><g id="link_recv_reasm"><path d="M790.39,386.8039 C789.07,424.8639 786.149,508.7776 784.819,546.9276 " fill="none" id="recv-to-reasm" style="stroke:#181818;stroke-width:1.0;stroke-dasharray:7.0,7.0;"/><polygon fill="#181818" points="784.61,552.9239,788.9211,544.0688,784.7842,547.927,780.926,543.79,784.61,552.9239" style="stroke:#181818;stroke-width:1.0;"/><text fill="#000000" font-family="sans-serif" font-size="13" lengthAdjust="spacing" textLength="86" x="787.87" y="498.8623">&#25512;&#36865; UDP &#20998;&#29255;</text></g><!--link reasm to pipeline--><g id="link_reasm_pipeline"><path d="M819.39,590.1239 C851.22,608.7239 893,641.3239 893,684.2839 C893,684.2839 893,684.2839 893,937.5139 C893,996.8139 825.7324,1027.5101 778.9724,1042.2501 " fill="none" id="reasm-to-pipeline" style="stroke:#181818;stroke-width:1.0;stroke-dasharray:7.0,7.0;"/><polygon fill="#181818" points="773.25,1044.0539,783.0362,1045.1631,778.0187,1042.5507,780.6311,1037.5332,773.25,1044.0539" style="stroke:#181818;stroke-width:1.0;"/><text fill="#000000" font-family="sans-serif" font-size="13" lengthAdjust="spacing" textLength="65" x="894" y="842.0923">&#25512;&#36865;&#23436;&#25972;&#24103;</text></g><!--reverse link queue to pipeline--><g id="link_queue_pipeline"><path d="M735,861.7039 C735,902.3039 735,995.8439 735,1036.3839 " fill="none" id="queue-backto-pipeline" style="stroke:#181818;stroke-width:1.0;stroke-dasharray:7.0,7.0;"/><polygon fill="#181818" points="735,855.7039,731,864.7039,735,860.7039,739,864.7039,735,855.7039" style="stroke:#181818;stroke-width:1.0;"/><text fill="#000000" font-family="sans-serif" font-size="13" lengthAdjust="spacing" textLength="52" x="736" y="941.5823">&#24402;&#36824;&#27133;&#20301;</text></g><!--reverse link reasm to queue--><g id="link_reasm_queue"><path d="M779.6126,596.1327 C770.6826,644.1327 747.19,770.4939 738.28,818.4039 " fill="none" id="reasm-backto-queue" style="stroke:#181818;stroke-width:1.0;stroke-dasharray:7.0,7.0;"/><polygon fill="#181818" points="780.71,590.2339,775.1313,598.3505,779.7955,595.1496,782.9964,599.8137,780.71,590.2339" style="stroke:#181818;stroke-width:1.0;"/><text fill="#000000" font-family="sans-serif" font-size="13" lengthAdjust="spacing" textLength="52" x="765.37" y="690.3523">&#30003;&#35831;&#27133;&#20301;</text></g><!--link paho to mqtt--><g id="link_paho_mqtt"><path d="M86,94.7739 C86,125.7889 86,192.2914 86,251.8352 C86,266.7211 86,281.1721 86,294.525 C86,294.9423 86,295.3585 86,295.7736 " fill="none" id="paho-mqtt" style="stroke:#181818;stroke-width:1.0;stroke-dasharray:7.0,7.0;"/><text fill="#000000" font-family="sans-serif" font-size="13" lengthAdjust="spacing" textLength="50" x="87" y="150.6223">API &#35843;&#29992;</text></g><!--link pipeline to gst--><g id="link_pipeline_gst"><path d="M763.36,1073.7339 C828.04,1114.1839 980.7426,1209.673 1045.0026,1249.853 " fill="none" id="pipeline-to-gst" style="stroke:#181818;stroke-width:1.0;stroke-dasharray:7.0,7.0;"/><polygon fill="#181818" points="1050.09,1253.0339,1044.5796,1244.8709,1045.8505,1250.3831,1040.3383,1251.654,1050.09,1253.0339" style="stroke:#181818;stroke-width:1.0;"/><text fill="#000000" font-family="sans-serif" font-size="13" lengthAdjust="spacing" textLength="50" x="938.22" y="1182.8123">API &#35843;&#29992;</text></g><!--reverse link bus to gst--><g id="link_bus_gst"><path d="M607.8231,1078.9584 C617.5631,1102.5084 635.85,1138.6139 667,1161.2439 C780.18,1243.5039 951.01,1263.8439 1032.12,1268.8539 " fill="none" id="bus-backto-gst" style="stroke:#181818;stroke-width:1.0;stroke-dasharray:7.0,7.0;"/><polygon fill="#181818" points="605.53,1073.4139,605.2734,1083.2595,607.441,1078.0344,612.666,1080.2019,605.53,1073.4139" style="stroke:#181818;stroke-width:1.0;"/><text fill="#000000" font-family="sans-serif" font-size="13" lengthAdjust="spacing" textLength="52" x="706.53" y="1182.8123">&#20107;&#20214;&#36890;&#30693;</text></g><!--link bus to signal--><g id="link_bus_signal"><path d="M560.75,1064.6239 C492.95,1081.2339 349.28,1122.5139 248,1194.2439 C225.28,1210.3339 208.7622,1230.9326 196.8922,1247.9526 " fill="none" id="bus-to-signal" style="stroke:#181818;stroke-width:1.0;stroke-dasharray:7.0,7.0;"/><polygon fill="#181818" points="193.46,1252.8739,201.8893,1247.7801,196.3202,1248.7728,195.3274,1243.2037,193.46,1252.8739" style="stroke:#181818;stroke-width:1.0;"/><text fill="#000000" font-family="sans-serif" font-size="13" lengthAdjust="spacing" textLength="52" x="283.17" y="1182.8123">&#20107;&#20214;&#36890;&#30693;</text></g><!--link sub to signal--><g id="link_sub_signal"><path d="M182,376.9739 C182,403.6839 182,495.0739 182,570.5339 C182,570.5339 182,570.5339 182,1056.0039 C182,1129.1739 182,1210.3839 182,1246.9739 " fill="none" id="sub-to-signal" style="stroke:#181818;stroke-width:1.0;stroke-dasharray:7.0,7.0;"/><polygon fill="#181818" points="182,1252.9739,186,1243.9739,182,1247.9739,178,1243.9739,182,1252.9739" style="stroke:#181818;stroke-width:1.0;"/><text fill="#000000" font-family="sans-serif" font-size="13" lengthAdjust="spacing" textLength="78" x="183" y="842.0923">&#35805;&#39064;&#35746;&#38405;&#36890;&#30693;</text></g><!--link signal to sigslot--><g id="link_signal_sigslot"><path d="M175.46,1290.0939 C164.47,1319.7039 142.41,1379.1139 131.46,1408.5739 " fill="none" id="signal-sigslot" style="stroke:#181818;stroke-width:1.0;stroke-dasharray:7.0,7.0;"/><text fill="#000000" font-family="sans-serif" font-size="13" lengthAdjust="spacing" textLength="50" x="149.39" y="1375.3023">API &#35843;&#29992;</text></g><!--link logger to spd--><g id="link_logger_spd"><path d="M464.9,1290.0939 C471.46,1319.7039 484.62,1379.1139 491.15,1408.5739 " fill="none" id="logger-spd" style="stroke:#181818;stroke-width:1.0;stroke-dasharray:7.0,7.0;"/><text fill="#000000" font-family="sans-serif" font-size="13" lengthAdjust="spacing" textLength="39" x="485" y="1375.3023">&#23439;&#23553;&#35013;</text></g><!--link queue to lockfree--><g id="link_queue_lockfree"><path d="M765.22,855.7439 C780.57,864.0339 799.79,873.3639 818,879.2739 C887,901.6539 967.03,915.5139 1031.56,923.8739 " fill="none" id="queue-lockfree" style="stroke:#181818;stroke-width:1.0;stroke-dasharray:7.0,7.0;"/></g><!--link broker to syscall--><!--link comm to img_trans--><!--link img_trans to utils--><!--SRC=[XLLjJzj677z_d-AKlcXHbPHgNLzKKwMDagdIkcM5JPEYgZBs9LZOFjTtfcCJ4epHXxMGia79s0ECbZMJIg1hnn0XuyjmTl8jzhyx9vZ0Eh-mp_Vx_H_k_tHipFPy8p1SR5BNfnxn-12VS0WEYCaDh-mGT1QpBicnFS8dV89fm4SfEW8yQX56V7ovFxKP6DxOYKsBb8pGuNdgyOyDb-0CCpoMPIImIvcqB0qzQu067WdmnNw4J8U65iuCVib9u1aE7lJ6xO1wBZYSmLyZ3CzPVAuFPuO72hW0xcMmmJ0tVGKLRtmwF8m_2EWO2Mv9O4Gj5IQ5FhkM4Wej7qqYL2nyCdJz2pmqmJXnyO3XE4gIJJ0JrWZvXZbcbE400uuDNc1mbYXv4nQ9I-hL8KA4NNmctv-_bh-KuF8f1J8CmpVkS9ve0Xqk_AKuYP-YiY1sPwBv3L5v9bb-ED9BQTNNszNP8mfBKIQHVX_podRBjpbaYk4pW_dyvNm-PRR3WQI3u-hfSIfn_YOnntiG5VQukH0tVWPleiMTUEyWhZrICOJY6Zz6dZnTgS4OSKUSYTDKYmVtueVts_VduiQtuiTQejTWxdyeFbgTEDwuRTqEY6T1gRtrb9_RrarDEyMVQFVFQFM7kFuRd5Cvuzi-aVroadguz-YmiHDDDJhKaP3zVpZoybEWr3ar6lTcnMOrUhMcJGFhb6IyMHVxI-tggdYmh6XtGX8IT8Aejd7M8IMUlQfquIjGLzkYkVJMs4wUBFcGsmuKblKkCOcPyhiuF6INeOrrHwbb6ZD7YHKwIQio-PT2Fw9bjU_GSZbfuKdThyOenQhH1ywVrt607LJya74e33THLsOS5Nt3CKpZAt81R3E7yeuVSesAfYHJxvsBbow08EJxRc33s55nIKoROwM045HalkKa_i0ImR0Kpv-sPsgw0Li7lqAAaHusE6VHkrxkgcf9w5oSWtKoXs3aT67P713m-AS5yUGbGicymJcPZrmNVTs86wlu_S9rtDgUYHThqdIqj1tDrNK9Hckxuc0c-ckwrNo9pxMND-FvhMXvxN3lkQWyx4DAJKvPWvO1XT5yhJqrZUKWr9s5D28vdKhkqaJzSRJqHko-G5qe5_gIgcld2XRDxri7rUX5yx0vX_HcmkWOZ1TVjxR-JXX8pJl9K3a3E7Mo8niW3kaxZaBluFTooRxkhFRKIhowWHGaPNI1zS8iIK4NRMtzqbwlwW7QKP60EZUT2ZdkWAx3BiMtvF7h5R4ztNesYpg7rsYtS917ES4Zb7FgObfA5RcOMzAJKkn_4srkYFfAjBm3fiJUxp3c4CmVB6LLgUtEY5TJX_jLyVXfwvzPyTqV80d9NddIMgxq0G6kFvmjZjgMHRnRWLqUvLbrkoK5sGjrhZPrKVM2tNi27TqONOuyNLPtE_eN]--></g></svg>